<?xml version="1.0" encoding="UTF-8"?>
<svg id="Layer_1" data-name="Layer 1" xmlns="http://www.w3.org/2000/svg" viewBox="0 0 1062 288">
  <g>
    <path d="M378.22,0h47.28l-47.28,72h-35.46c-11.82,12-23.64,24-35.46,36h47.28c-11.82,18-23.64,36-35.46,54h-59.1c-39.4,42-78.8,84-118.19,126H0L378.22,0Z"/>
    <path d="M437.31,0h47.28v72h-35.46c-3.94,12-7.88,24-11.82,36h47.28v54h-59.1c-3.94,18-7.88,36-11.82,54h70.92v72h-236.39C311.24,192,374.28,96,437.31,0Z"/>
    <path d="M496.41,0h13.79c13.79,24,27.59,48,41.38,72-4.6-24-9.2-48-13.79-72h13.79c73.57,96,147.15,192,220.72,288h-110.36c-27.59-60-55.18-120-82.77-180,4.6,18,9.2,36,13.79,54h-13.79c-9.2-18-18.39-36-27.59-54,18.39,60,36.79,120,55.18,180h-110.36V0Z"/>
    <path d="M786.1,288C712.53,192,638.96,96,565.38,0h55.18l441.44,288h-93.88c-60.67-42-121.34-84-182.01-126h-13.79c45.98,42,91.97,84,137.95,126h-124.15ZM730.92,108l-55.18-36c13.79,12,27.59,24,41.38,36h13.79Z"/>
  </g>
  <text/>
</svg>