<?xml version="1.0" encoding="UTF-8"?>
<svg xmlns="http://www.w3.org/2000/svg" viewBox="0 0 628.55 850.7">
  <defs>
    <style>
      .cls-1 {
        fill: #f8cf00;
      }

      .cls-2 {
        fill: #fff;
      }

      .cls-2, .cls-3 {
        stroke: #000;
        stroke-miterlimit: 10;
      }

      .cls-3, .cls-4 {
        fill: red;
      }
    </style>
  </defs>
  <g id="man">
    <g id="human">
      <g>
        <path d="M249.27,188.32c-43.93,0-79.67-35.74-79.67-79.67S205.34,28.98,249.27,28.98s79.67,35.74,79.67,79.67-35.74,79.67-79.67,79.67Z"/>
        <path d="M249.27,29.48c43.65,0,79.17,35.52,79.17,79.17s-35.52,79.17-79.17,79.17-79.17-35.52-79.17-79.17S205.62,29.48,249.27,29.48M249.27,28.48c-44.28,0-80.17,35.89-80.17,80.17s35.89,80.17,80.17,80.17,80.17-35.89,80.17-80.17-35.89-80.17-80.17-80.17h0Z"/>
      </g>
      <g>
        <rect x="151.94" y="201.2" width="194.66" height="360.86"/>
        <path d="M346.11,201.7v359.86h-193.66V201.7h193.66M347.11,200.7h-195.66v361.86h195.66V200.7h0Z"/>
      </g>
      <g>
        <path d="M41.4,472.17c-6.55,0-13.03-1.74-18.74-5.04l-3.39-1.95c-17.93-10.35-24.09-33.36-13.74-51.29l111.95-193.91c6.69-11.58,19.16-18.78,32.55-18.78,6.55,0,13.03,1.74,18.74,5.04l3.39,1.95c17.93,10.35,24.09,33.36,13.74,51.29l-111.95,193.91c-6.69,11.58-19.16,18.78-32.55,18.78Z"/>
        <path d="M150.04,200.7v1c6.46,0,12.85,1.72,18.49,4.97l3.39,1.95c17.69,10.21,23.77,32.91,13.56,50.6l-111.95,193.91c-6.6,11.43-18.91,18.53-32.12,18.53-6.46,0-12.86-1.72-18.49-4.97l-3.39-1.95c-17.69-10.21-23.77-32.91-13.56-50.6l111.95-193.91c6.6-11.43,18.91-18.53,32.12-18.53v-1M150.04,200.7c-13.15,0-25.94,6.82-32.98,19.03L5.1,413.64c-10.51,18.2-4.27,41.47,13.93,51.97l3.39,1.95c5.99,3.46,12.53,5.1,18.99,5.1,13.15,0,25.94-6.82,32.98-19.03l111.95-193.91c10.51-18.2,4.27-41.47-13.93-51.97l-3.39-1.95c-5.99-3.46-12.53-5.1-18.99-5.1h0Z"/>
      </g>
      <g>
        <path d="M457.15,470.85c-14.04,0-27.11-7.54-34.12-19.69l-110.14-190.77c-10.85-18.79-4.39-42.91,14.41-53.76l.25-.14c5.98-3.45,12.77-5.28,19.64-5.28,14.04,0,27.11,7.54,34.12,19.69l110.14,190.77c5.26,9.1,6.65,19.71,3.93,29.87-2.72,10.15-9.23,18.64-18.34,23.9l-.25.14c-5.98,3.45-12.77,5.28-19.64,5.28Z"/>
        <path d="M347.18,200.7v1h0c13.86,0,26.77,7.45,33.69,19.44l110.14,190.77c10.71,18.56,4.33,42.37-14.22,53.08l-.25.14c-5.91,3.41-12.61,5.21-19.39,5.21-13.86,0-26.77-7.45-33.69-19.44l-110.14-190.77c-10.71-18.56-4.33-42.37,14.22-53.08l.25-.14c5.91-3.41,12.61-5.21,19.39-5.21v-1M347.18,200.7c-6.76,0-13.62,1.72-19.89,5.35l-.25.14c-19.06,11.01-25.59,35.38-14.59,54.45l110.14,190.77c7.38,12.79,20.78,19.94,34.55,19.94,6.76,0,13.62-1.72,19.89-5.35l.25-.14c19.06-11.01,25.59-35.38,14.59-54.45l-110.14-190.77c-7.38-12.79-20.78-19.94-34.55-19.94h0Z"/>
      </g>
      <g>
        <path d="M191.44,850.2c-21.78,0-39.5-17.72-39.5-39.5v-320c0-21.78,17.72-39.5,39.5-39.5s39.5,17.72,39.5,39.5v320c0,21.78-17.72,39.5-39.5,39.5Z"/>
        <path d="M191.44,451.7c21.5,0,39,17.5,39,39v320c0,21.5-17.5,39-39,39s-39-17.5-39-39v-320c0-21.5,17.5-39,39-39M191.44,450.7h0c-22.09,0-40,17.91-40,40v320c0,22.09,17.91,40,40,40h0c22.09,0,40-17.91,40-40v-320c0-22.09-17.91-40-40-40h0Z"/>
      </g>
      <g>
        <path d="M307.11,850.2c-21.78,0-39.5-17.72-39.5-39.5v-320c0-21.78,17.72-39.5,39.5-39.5s39.5,17.72,39.5,39.5v320c0,21.78-17.72,39.5-39.5,39.5Z"/>
        <path d="M307.11,451.7c21.5,0,39,17.5,39,39v320c0,21.5-17.5,39-39,39s-39-17.5-39-39v-320c0-21.5,17.5-39,39-39M307.11,450.7h0c-22.09,0-40,17.91-40,40v320c0,22.09,17.91,40,40,40h0c22.09,0,40-17.91,40-40v-320c0-22.09-17.91-40-40-40h0Z"/>
      </g>
    </g>
  </g>
  <g id="features">
    <g id="eyes">
      <path class="cls-3" d="M186.98,102c2.71,2.9,8.79,8.53,18.23,10.83,18.08,4.41,32.55-7.29,34.31-8.76-2.25-2.02-13.38-11.62-29.75-10.72-11.67.64-19.74,6.28-22.78,8.65Z"/>
      <path class="cls-3" d="M311.57,102c-2.71,2.9-8.79,8.53-18.23,10.83-18.08,4.41-32.55-7.29-34.31-8.76,2.25-2.02,13.38-11.62,29.75-10.72,11.67.64,19.74,6.28,22.78,8.65Z"/>
    </g>
    <path id="teeth" class="cls-2" d="M204.07,138.84c11.67,2.6,26.84,4.87,44.58,4.75,18.36-.13,33.96-2.78,45.83-5.69-.8,1.3-16.39,25.77-45.83,25.59-28.31-.18-43.52-22.99-44.58-24.65Z"/>
    <g id="nails">
      <path class="cls-1" d="M491.92,411.4c10.97,19,4.36,43.67-14.64,54.64-19,10.97-43.67,4.36-54.64-14.64,11.55-6.67,23.09-13.33,34.64-20,11.55-6.67,23.09-13.33,34.64-20Z"/>
      <rect class="cls-1" x="409.23" y="401.45" width="80" height="32.1" transform="translate(-148.56 280.55) rotate(-30)"/>
    </g>
  </g>
  <g id="bubble">
    <g id="mark">
      <circle class="cls-4" cx="77.32" cy="139.66" r="50"/>
      <rect class="cls-1" x="67.32" y="104.54" width="20" height="44.89" rx="9.46" ry="9.46"/>
      <circle class="cls-1" cx="77.32" cy="164.37" r="10"/>
    </g>
    <g id="mark2">
      <circle class="cls-4" cx="432.77" cy="50" r="50"/>
      <rect class="cls-1" x="422.77" y="14.88" width="20" height="44.89" rx="9.46" ry="9.46"/>
      <circle class="cls-1" cx="432.77" cy="74.72" r="10"/>
    </g>
    <g id="mark3">
      <circle class="cls-4" cx="578.55" cy="466.41" r="50"/>
      <rect class="cls-1" x="568.55" y="431.29" width="20" height="44.89" rx="9.46" ry="9.46"/>
      <circle class="cls-1" cx="578.55" cy="491.12" r="10"/>
    </g>
  </g>
</svg>