<?xml version="1.0" encoding="UTF-8"?>
<svg id="Layer_1" data-name="Layer 1" xmlns="http://www.w3.org/2000/svg" viewBox="0 0 500 500">
  <defs>
    <style>
      .cls-1 {
        fill: #8a181b;
      }

      .cls-2 {
        fill: #fdfcfc;
      }
    </style>
  </defs>
  <circle class="cls-1" cx="250" cy="250" r="250"/>
  <g>
    <path class="cls-2" d="M314.18,158.05c-22.21,5.58-34.98,27.08-30.11,48.71,6.18,27.45,50.39,25.97,84.56,42.77,30.44,14.97,21.82,59.19,6.8,72.44-25.6,22.59-60.53,23.93-92.31,12.81-13.6-4.76-22.71-15.29-27.56-28.2l-5.21-13.84-6.11,8.27c-8.71,11.77-18.41,21.17-31.84,27.47-24.75,11.61-42.9,14.63-69.07,5.01-21.36-7.85-37.83-23.3-43.51-46.25-9.71-39.24-1.42-66.29,15.62-101.67,3.15-6.55,11.23-13.83,16.73-19.03,20.15-19.08,45.3-26.93,72.96-24.45,30.7,2.75,55.39,22.61,62.31,53.24,5.32,23.53,2.69,47.82-5.16,70.75-8.22,24,1.57,48.92,25.31,59.03,21.29,9.06,45.89,8.54,66.99-.68,22.15-9.68,32.01-35.45,21.55-56.2-14.15-28.07-88.07-18.24-99.66-56.42-7.8-25.69,5.6-50.63,29.9-60.54,23.36-9.52,48.91-8.64,72.8.57,21.21,8.17,24.41,30.27,25.18,50.21l-7.07.64c-3.07.28.17-17.84-9.3-31.57-14.84-21.51-49.4-19.2-73.78-13.07Z"/>
    <path class="cls-1" d="M248.66,276.81c-16.64,31.9-40.02,50.5-76.83,51.99-32.42,1.31-60.21-19.83-65.53-52.58-7.59-46.67,10.47-92.11,52.52-117.02,19.71-11.68,44.43-11.66,65.59-3.59,13.87,5.29,33.49,26.94,35.95,47.42,3.04,25.38.22,50.94-11.69,73.78Z"/>
  </g>
</svg>