<?xml version="1.0" encoding="UTF-8"?>
<svg id="Layer_1" data-name="Layer 1" xmlns="http://www.w3.org/2000/svg" viewBox="0 0 3.84 3.84">
  <defs>
    <style>
      .cls-1 {
        fill: #2a1615;
      }

      .cls-2 {
        fill: #382221;
      }

      .cls-3 {
        fill: #fd938c;
      }

      .cls-4 {
        fill: #fd938b;
      }

      .cls-5 {
        fill: #f7d2c1;
      }
    </style>
  </defs>
  <path class="cls-2" d="M3.92-.23V3.84h-1.62l-.06-.15c.25-.23.57-.4.97-.51.16-.32.27-.64.34-.94-.33.2-.5-.02-.37-.37l-.12-.12-.12-.12c-.39-.08-.7-.17-1.01-.42-.27.24-.6.38-.98.42l-.25.25c.04.36.02.55-.37.37.12.27.23.58.33.92l.86.39.05.29H-.08V-.23h3.99Z"/>
  <path class="cls-5" d="M.92,2.48c.64.5,1.27.61,1.87,0,.16-.2.41-.28.75-.25.28.35.08.74-.18,1.12l-1.07.48h-.75l-1.09-.48c-.19-.35-.38-.82-.16-1.13.24-.07.54.01.62.25Z"/>
  <path class="cls-5" d="M2.92,1.62c.02.18.02.34,0,.49.31.16.22.34-.12.37-.46.55-1.34.57-1.75,0-.34-.05-.38-.14-.12-.37-.13-.08-.11-.19.07-.33l-.07-.17,1-.74,1,.74Z"/>
  <path class="cls-3" d="M.92,2.11c.04.1.09.25.12.37-.04.07-.08.07-.12,0-.25.03-.6,0-.62-.25l.37-.37c.2-.05.28.04.25.25Z"/>
  <path class="cls-4" d="M3.54,2.24c.04.34-.47.26-.75.25.04-.12.09-.27.12-.37-.02-.18.06-.27.25-.25l.37.37Z"/>
  <path class="cls-5" d="M.67,1.87l.25-.25c.23.15-.05.4-.25.25Z"/>
  <path class="cls-5" d="M3.04,1.74c-.18.16-.24.09-.12-.12l.12.12Z"/>
  <path class="cls-5" d="M3.17,1.87c-.18.16-.24.09-.12-.12l.12.12Z"/>
  <path class="cls-1" d="M2.79,2.48c-.11.4-.49.62-.93.65-.34-.09-.77-.33-.94-.65h.12c.6.32,1.12.25,1.75,0Z"/>
  <polygon class="cls-1" points=".92 2.11 .73 2.09 .67 1.87 .92 1.62 1.57 1.65 1.81 2.15 1.21 1.84 .92 2.11"/>
  <polygon class="cls-1" points="2.92 1.62 3.04 1.74 3.17 1.87 3.11 2.09 2.92 2.11 2.63 1.84 2.03 2.15 2.27 1.65 2.92 1.62"/>
</svg>